HIERARCHY
ROOT Root
{
	OFFSET 0.00 0.00 0.00
	CHANNELS 6 Xposition Yposition Zposition Xrotation Yrotation Zrotation
	JOINT L_Femur
	{
		OFFSET 2.78527 0.00000 0.00000
		CHANNELS 3 Xrotation Yrotation Zrotation
		JOINT L_Tibia
		{
			OFFSET 0.00000 -16.41095 0.00000
			CHANNELS 3 Xrotation Yrotation Zrotation
			JOINT L_Foot
			{
				OFFSET 0.00000 -14.21163 0.00000
				CHANNELS 3 Xrotation Yrotation Zrotation
				JOINT L_Toe
				{
					OFFSET 0.00000 -1.60827 6.00215
					CHANNELS 3 Xrotation Yrotation Zrotation
					End Site
					{
						OFFSET 0.00000 0.00000 2.95275
					}
				}
			}
		}
	}
	JOINT R_Femur
	{
		OFFSET -2.78527 0.00000 0.00000
		CHANNELS 3 Xrotation Yrotation Zrotation
		JOINT R_Tibia
		{
			OFFSET 0.00000 -16.41095 0.00000
			CHANNELS 3 Xrotation Yrotation Zrotation
			JOINT R_Foot
			{
				OFFSET 0.00000 -14.21163 0.00000
				CHANNELS 3 Xrotation Yrotation Zrotation
				JOINT R_Toe
				{
					OFFSET 0.00000 -1.60827 6.00215
					CHANNELS 3 Xrotation Yrotation Zrotation
					End Site
					{
						OFFSET 0.00000 0.00000 2.95275
					}
				}
			}
		}
	}
	JOINT LowerBack
	{
		OFFSET 0.00000 0.03937 0.00000
		CHANNELS 3 Xrotation Yrotation Zrotation
		JOINT Thorax
		{
			OFFSET 0.00000 7.01329 0.00000
			CHANNELS 3 Xrotation Yrotation Zrotation
			JOINT Neck
			{
				OFFSET 0.00000 7.25825 0.00000
				CHANNELS 3 Xrotation Yrotation Zrotation
				JOINT Head
				{
					OFFSET 0.00000 5.63334 0.00000
					CHANNELS 3 Xrotation Yrotation Zrotation
					End Site
					{
						OFFSET 0.00000 4.52755 0.00000
					}
				}
			}
			JOINT L_Collar
			{
				OFFSET 0.00000 7.25825 0.00000
				CHANNELS 3 Xrotation Yrotation Zrotation
				JOINT L_Humerus
				{
					OFFSET 6.91821 -0.00003 0.00000
					CHANNELS 3 Xrotation Yrotation Zrotation
					JOINT L_Elbow
					{
						OFFSET 10.34006 -0.00004 0.00000
						CHANNELS 3 Xrotation Yrotation Zrotation
						JOINT L_Wrist
						{
							OFFSET 7.25554 -0.00003 0.00000
							CHANNELS 3 Xrotation Yrotation Zrotation
							JOINT L_Thumb
							{
								OFFSET 0.00000 0.00000 0.00000
								CHANNELS 3 Xrotation Yrotation Zrotation
								End Site
								{
									OFFSET 0.00000 0.00000 3.93700
								}
							}
							JOINT L_Wrist_End
							{
								OFFSET 3.93700 -0.00001 0.00000
								CHANNELS 3 Xrotation Yrotation Zrotation
							}
						}
					}
				}
			}
			JOINT R_Collar
			{
				OFFSET 0.00000 7.25825 0.00000
				CHANNELS 3 Xrotation Yrotation Zrotation
				JOINT R_Humerus
				{
					OFFSET -6.91821 -0.00003 0.00000
					CHANNELS 3 Xrotation Yrotation Zrotation
					JOINT R_Elbow
					{
						OFFSET -10.34006 -0.00004 0.00000
						CHANNELS 3 Xrotation Yrotation Zrotation
						JOINT R_Wrist
						{
							OFFSET -7.25554 -0.00003 0.00000
							CHANNELS 3 Xrotation Yrotation Zrotation
							JOINT R_Thumb
							{
								OFFSET 0.00000 0.00000 0.00000
								CHANNELS 3 Xrotation Yrotation Zrotation
								End Site
								{
									OFFSET 0.00000 0.00000 3.93700
								}
							}
							JOINT R_Wrist_End
							{
								OFFSET -5.39369 -0.00002 0.00000
								CHANNELS 3 Xrotation Yrotation Zrotation
							}
						}
					}
				}
			}
		}
	}
}
MOTION
Frames: 11
Frame Time: 0.066664
 98.1973 23.3179 4.3896 134.8853 -40.2246 137.5841 -101.9901 4.0059 32.3488 68.6212 -0.0000 0.0000 -5.2742 -11.2086 -1.9351 -7.9028 -0.0000 0.0000 -65.9617 10.5953 -0.4359 88.1332 -0.0000 0.0000 -55.7359 2.8683 10.2609 -8.5957 -0.0000 -0.0000 1.6564 -0.8534 -20.6893 27.3090 7.3722 27.1258 4.7836 -49.8311 -17.8604 -82.5744 28.8406 64.0051 -7.6184 11.6604 7.5497 -76.9402 -10.5134 -69.6299 -179.9993 -72.9168 -179.9991 -26.5900 -6.4862 -2.1821 -0.0000 0.0000 -0.0000 -0.0000 0.0000 -0.0000 7.0439 3.6648 -15.3355 -45.8856 0.9648 81.1910 -179.9996 61.8546 179.9993 -3.4067 6.0135 -6.1292 -0.0000 0.0000 -0.0000 -0.0000 0.0000 -0.0000
 96.7366 25.0930 2.9926 130.9621 -47.4225 129.0464 -94.7632 7.3924 30.5997 63.2164 -0.0000 0.0000 -8.4518 -13.5387 -2.6281 -7.9689 0.0000 0.0000 -52.4955 2.5338 -1.0921 76.8148 -0.0000 0.0000 -53.0391 1.3552 7.7616 -8.9311 0.0000 0.0000 1.0390 -0.8470 -16.6864 22.3501 2.9592 19.9267 5.1167 -55.0472 -12.8030 -81.8886 33.0891 68.6428 -4.6354 13.1676 8.0550 -66.6851 -18.8363 -74.8819 -179.9993 -72.9751 -179.9991 -25.0468 -4.1634 -5.2545 -0.0000 0.0000 -0.0000 -0.0000 0.0000 -0.0000 5.2794 2.2909 -13.8687 -51.2532 0.4829 80.4766 -179.9998 49.5082 179.9995 1.9326 3.1054 -5.8935 -0.0000 0.0000 -0.0000 -0.0000 0.0000 -0.0000
 94.4410 27.1297 1.5790 122.1996 -55.9454 117.4424 -84.6361 12.9152 28.5702 57.4496 0.0000 0.0000 -15.7965 -8.3504 -2.1374 -8.0261 0.0000 0.0000 -37.9745 -5.6095 -1.5891 65.1493 -0.0000 0.0000 -43.6132 1.1277 6.9769 -11.1003 0.0000 0.0000 1.0079 -1.5497 -12.9015 14.3938 0.1341 10.4989 5.1842 -56.4043 -8.6955 -72.0738 36.4215 67.0502 -2.7823 14.4201 10.2562 -62.0932 -23.5054 -85.9543 -179.9993 -73.0938 -179.9991 -22.1537 -2.2928 -7.4768 -0.0000 0.0000 -0.0000 -0.0000 0.0000 -0.0000 2.4760 2.2177 -14.8508 -61.3535 1.7163 76.0207 -179.9998 47.3428 179.9995 8.0143 -0.3514 -5.1906 -0.0000 0.0000 -0.0000 -0.0000 0.0000 -0.0000
 91.6591 28.9129 0.7082 106.7699 -63.5166 100.5835 -71.8066 17.1695 24.4926 48.0984 -0.0000 0.0000 -12.9275 -10.7664 -3.9001 -8.4020 -0.0000 -0.0000 -28.9627 -11.2074 -2.4227 61.9286 0.0000 0.0000 -28.1097 2.0055 9.9152 -11.3545 -0.0000 0.0000 1.1393 -1.8512 -9.6125 8.2196 -0.3778 3.3436 -0.8311 -53.6806 -11.9663 -54.5506 37.9086 59.6540 -3.5860 12.4683 10.9137 -65.8002 -22.4488 -98.5363 -179.9993 -72.3508 -179.9991 -19.3263 -1.5390 -8.3468 -0.0000 0.0000 -0.0000 -0.0000 0.0000 -0.0000 0.4144 3.6493 -19.0414 -76.7689 6.2337 68.7777 -179.9995 66.5787 179.9993 17.6802 -5.4008 -5.6015 -0.0000 0.0000 -0.0000 -0.0000 0.0000 -0.0000
 89.0998 30.0912 0.3362 92.9315 -67.0959 86.3895 -61.0621 18.4544 21.2140 41.6015 -0.0000 0.0000 -12.5978 -13.4084 -3.8063 -8.5213 0.0000 0.0000 -24.2537 -14.0772 -3.5562 47.0730 -0.0000 0.0000 -33.5553 4.3797 10.4247 -10.9124 0.0000 0.0000 0.8362 -1.3726 -6.9444 4.1315 0.0952 -3.3961 -5.4247 -51.6045 -11.9600 -39.0937 40.8394 52.4071 -5.3673 9.5675 10.6888 -72.2962 -16.8180 -106.8373 -179.9993 -72.1996 -179.9991 -16.5699 -0.8861 -8.5821 -0.0000 -0.0000 0.0000 -0.0000 -0.0000 0.0000 -2.9702 7.1640 -25.2709 -90.4236 14.8500 63.2358 -0.0003 58.2199 0.0002 10.5966 -0.0020 -7.6536 -0.0000 0.0000 -0.0000 -0.0000 0.0000 -0.0000
 86.6544 30.7991 0.1051 81.6561 -69.6617 73.9161 -52.2171 17.3180 20.2951 38.3635 -0.0000 0.0000 -14.4716 -14.5504 -4.4417 -8.8199 0.0000 -0.0000 -23.4113 -18.7033 -4.4179 36.5932 0.0000 0.0000 -32.3604 0.5731 6.8154 -11.5131 -0.0000 -0.0000 0.4326 -1.1917 -6.1867 2.9677 0.4338 -6.0594 -6.1327 -52.7514 -10.5662 -34.6253 40.3605 51.0057 -7.0333 8.5499 13.8183 -73.6931 -13.3609 -109.1600 -179.9993 -73.3522 -179.9991 -16.4962 -0.9183 -8.2554 -0.0000 0.0000 -0.0000 -0.0000 0.0000 -0.0000 -5.2775 9.3039 -31.3178 -87.8668 27.8087 58.8631 -0.0001 16.6171 0.0000 5.3934 1.1781 -4.8956 -0.0000 0.0000 -0.0000 -0.0000 0.0000 -0.0000
 84.0897 31.1365 -0.0496 62.1774 -71.0413 52.0295 -43.9858 13.7307 20.7814 37.5027 -0.0000 0.0000 -18.4642 -15.5883 -6.5672 -8.8766 -0.0000 -0.0000 -21.9379 -18.5471 -3.7148 36.8521 -0.0000 0.0000 -32.3330 1.7570 5.8582 -11.6471 0.0000 -0.0000 -0.4416 -2.1967 -6.9911 3.5209 -0.4665 -4.5755 -7.5191 -54.3020 -8.6355 -22.4544 42.4435 41.2322 -6.6703 9.5795 14.1870 -73.0070 -17.9225 -106.1720 -179.9992 -75.4002 -179.9990 -16.3129 -0.7361 -8.6771 -0.0000 0.0000 -0.0000 -0.0000 0.0000 -0.0000 -1.4010 6.0458 -26.0362 -81.6736 18.3497 60.5463 -0.0002 47.7623 0.0001 -3.7725 7.8701 -9.0640 -0.0000 0.0000 -0.0000 -0.0000 0.0000 -0.0000
 81.8074 31.1437 0.1133 50.6686 -70.4502 40.3279 -38.3924 12.3711 20.7806 38.3085 -0.0000 0.0000 -22.6657 -15.9498 -7.7083 -8.5225 0.0000 -0.0000 -24.8158 -14.8735 -5.5038 33.2403 -0.0000 0.0000 -27.5950 1.4480 7.1434 -11.3155 0.0000 0.0000 -0.6517 -2.1482 -7.5044 2.9249 -0.4469 -4.0209 -9.0484 -55.9572 -9.5903 -17.9750 43.2916 35.2287 -5.3760 12.7493 12.1298 -68.8292 -24.4448 -101.9934 -179.9992 -75.0316 -179.9990 -18.1595 -1.2062 -8.7342 -0.0000 0.0000 -0.0000 -0.0000 0.0000 -0.0000 0.3283 2.3910 -22.5314 -62.8142 14.0662 62.5987 -0.0023 84.6806 0.0021 -14.0198 10.6634 -4.8356 -0.0000 0.0000 -0.0000 -0.0000 0.0000 -0.0000
 79.8751 30.6359 0.2869 43.7296 -70.7746 33.3656 -36.4859 14.2217 23.5308 43.3299 -0.0000 0.0000 -28.4225 -18.2910 -9.6698 -7.6747 0.0000 -0.0000 -31.8876 -17.5965 -7.7226 41.3933 -0.0000 0.0000 -26.7427 -1.4931 5.2792 -11.2784 0.0000 -0.0000 -0.6604 -2.3537 -7.6723 4.2801 -0.6356 -3.1400 -9.7808 -55.8345 -10.3192 -13.6771 43.7679 31.3798 -4.0918 14.7096 11.4152 -63.3938 -26.2687 -100.4189 -179.9992 -75.4957 -179.9989 -21.0960 -1.5415 -9.0167 -0.0000 -0.0000 0.0000 -0.0000 -0.0000 0.0000 2.2228 -0.2177 -18.2364 -49.9924 15.5281 66.9962 -179.9991 77.4445 179.9988 -10.0412 8.4130 -4.0060 -0.0000 0.0000 -0.0000 -0.0000 0.0000 -0.0000
 78.6212 29.4712 0.2284 46.1582 -70.7886 35.3196 -40.0746 13.5933 26.9516 53.8165 -0.0000 0.0000 -34.7625 -18.0710 -10.4279 -6.6751 -0.0000 -0.0000 -45.4348 -20.6863 -9.2296 51.2491 -0.0000 0.0000 -26.4907 -2.2977 3.9642 -10.9721 -0.0000 -0.0000 -0.9773 -2.9654 -7.6152 7.3549 -1.1796 -1.7080 -10.2997 -56.0347 -12.8615 -13.5019 44.5274 34.8127 -2.9159 13.4406 10.8449 -64.1530 -24.4071 -100.2331 -179.9991 -76.4018 -179.9989 -20.4593 -2.0279 -8.2783 -0.0000 -0.0000 0.0000 -0.0000 -0.0000 0.0000 3.3011 -1.3723 -16.7693 -44.8618 13.5974 72.3556 -179.9994 70.6261 179.9992 -5.5455 6.7602 -5.2250 -0.0000 -0.0000 0.0000 -0.0000 -0.0000 0.0000
 77.9138 27.5559 0.0003 57.2739 -71.6884 46.7867 -46.1344 12.6460 30.8026 67.6193 -0.0000 0.0000 -42.3607 -16.9716 -10.7755 -5.0835 -0.0000 0.0000 -61.3430 -19.6912 -7.4976 56.6639 -0.0000 0.0000 -21.7144 -3.2913 2.6916 -10.9170 0.0000 0.0000 -0.8116 -3.6210 -7.9623 12.4986 -1.7874 -1.4123 -12.6433 -56.2207 -18.0123 -15.3783 44.9161 42.8468 -3.4428 10.4106 12.0133 -69.6544 -19.1960 -98.4022 -179.9992 -75.8570 -179.9989 -20.1544 -2.5052 -7.5624 -0.0000 0.0000 -0.0000 -0.0000 0.0000 -0.0000 3.7910 -1.1936 -15.6595 -47.2043 10.3874 74.5543 -179.9995 68.9692 179.9992 -7.5092 7.8148 -6.0596 -0.0000 0.0000 -0.0000 -0.0000 0.0000 -0.0000
